<svg width="15" height="14" viewBox="0 0 15 14" fill="none" xmlns="http://www.w3.org/2000/svg">
<path d="M9.7 0.099998C11.2 -0.400002 12.3 0.399998 12.9 1.2C13.4 0.999998 14 0.799998 14.6 0.599998C14.6 1.4 14.1 2 13.8 2.2C14.5 2.4 15 1.8 15 1.8C14.9 2.7 14.1 3.5 13.6 3.7C13.4 10 10.8 14.1 4.7 14C4.2 14 4.8 14 4.3 14C4 14 0.6 13.6 0 12.2C2 12.4 3.4 11.8 4.1 11.1C3.3 10.8 1.7 10.7 1.5 8.3C1.8 8.5 2 8.6 2.6 8.5C1.5 7.7 0.3 7 0.4 5C0.7 5.3 1.3 5.5 1.6 5.4C1 5.2 -0.2 2.3 0.8 0.799998C2.4 2.5 4.1 4.2 7.1 4.3C7.3 2.2 8.1 0.799998 9.7 0.099998Z" fill="#444444"/>
</svg>
