<svg width="60" height="60" viewBox="0 0 60 60" fill="none" xmlns="http://www.w3.org/2000/svg">
<circle cx="30" cy="30" r="29" stroke="black" stroke-opacity="0.6" stroke-width="2"/>
<path d="M13.5632 29.316V35H11.2672V25.06H13.0872L17.6932 30.912V25.06H19.9892V35H18.1132L13.5632 29.316ZM31.6763 32.984V35H24.6903V25.06H31.5503V27.076H26.9863V29.008H30.9063V30.87H26.9863V32.984H31.6763ZM39.1471 25.074H41.2611L42.2971 28.252L43.3331 25.074H45.4611L43.7671 29.694L44.7751 32.34L47.2671 25.06H49.7731L45.8951 35H43.9071L42.2971 31.108L40.7011 35H38.6991L34.8351 25.06H37.3271L39.8331 32.34L40.8131 29.694L39.1471 25.074Z" fill="black" fill-opacity="0.6"/>
</svg>
